<svg xmlns="http://www.w3.org/2000/svg" xmlns:xlink="http://www.w3.org/1999/xlink" width="248" height="249" viewBox="0 0 248 249">
  <defs><path id="y1bna" d="M33 151C33 83.07 88.24 28 156.25 28 224.11 28 279 82.84 279 150.5s-54.9 122.72-122.75 123C88.25 273.78 33 218.93 33 151z"/><path
    id="y1bnb"
    d="M83.9 118.2c-.68.13-1.28.43-1.68.95-.4.5-.57 1.18-.51 2 .24 2.27.57 4.44.97 6.43.4 2 1.04 4.14 1.9 6.54.87 2.4 1.94 4.46 3.12 6.31a27.36 27.36 0 0 0 11.74 9.51 41.33 41.33 0 0 0 9.4 2.36c3.76.52 7.83.62 12.27.3l16.97-1.22c2.96-.21 5.38.62 7.26 2.6a13.88 13.88 0 0 1 3.59 6.26c.12.52.42.98.97 1.38.5.4 1.13.58 1.87.52l7.3-.52c1.3-.1 2.13-.81 2.43-2.15a15.87 15.87 0 0 1 4.35-7.76 7.74 7.74 0 0 1 5.27-2.7l17.55-1.26c4.47-.32 8.52-1 12.11-2.05a40.94 40.94 0 0 0 9-3.67 27.27 27.27 0 0 0 10.42-11.08c1-2 1.76-4.2 2.33-6.7.52-2.48.89-4.7 1-6.72.13-2.02.15-4.21.08-6.48 0-1.75-.89-2.65-2.63-2.62l-8.93.07c-.79.01-1.34.23-1.74.7-.4.42-.63.91-.68 1.49a37.26 37.26 0 0 1-2.12 7.72 23.8 23.8 0 0 1-3.85 6.1 16.79 16.79 0 0 1-6.53 4.45 32.68 32.68 0 0 1-9.64 2.05l-14.24 1.02c-3 .21-5.75.9-8.2 2.12a18.17 18.17 0 0 0-5.86 4.14 34.23 34.23 0 0 0-3.18 3.87 10.88 10.88 0 0 0-1.4 2.47l-.61.04c-.6-1.1-1.38-2.18-2.23-3.17a27.61 27.61 0 0 0-3.65-3.33 15.75 15.75 0 0 0-5.82-2.74c-2.4-.62-5-.83-7.79-.63l-14.57 1.04c-7.14.51-12.52-.72-16.27-3.7-3.67-2.99-6.39-7.4-8.12-13.33-.5-1.46-1.41-2.05-2.8-1.82l-8.84 1.2z"/><path
    id="y1bnc"
    d="M103.1 174.33c-.56.08-1.02.34-1.35.71-.32.37-.46.91-.42 1.52.21 1.74.5 3.39.74 4.9a48.4 48.4 0 0 0 1.44 4.95c.7 1.79 1.52 3.48 2.45 5a27.02 27.02 0 0 0 3.81 4.41 21.05 21.05 0 0 0 5.33 3.52c1.99.9 4.44 1.56 7.27 2.01 2.87.41 6.03.53 9.46.28l12.84-.93a6.5 6.5 0 0 1 5.47 1.97 10.41 10.41 0 0 1 2.73 4.75c.07.4.31.73.73 1.05.37.32.86.46 1.43.42l5.52-.4c.95-.07 1.57-.64 1.85-1.67a10.98 10.98 0 0 1 3.26-5.89 5.97 5.97 0 0 1 4-2.04l13.25-.97c3.47-.25 6.57-.83 9.35-1.64a29.63 29.63 0 0 0 6.95-3.04 21.61 21.61 0 0 0 8-9.17 27.3 27.3 0 0 0 1.76-5.3c.4-1.86.66-3.59.78-5.08.06-1.54.12-3.21.09-4.96-.01-1.31-.7-1.96-2.1-1.95l-7.15.08c-.61 0-1.04.16-1.36.5-.33.32-.52.73-.58 1.17a28.28 28.28 0 0 1-1.6 5.85 17.81 17.81 0 0 1-2.94 4.68 13.48 13.48 0 0 1-4.95 3.38 24.5 24.5 0 0 1-7.23 1.54l-10.77.78c-2.26.16-4.36.7-6.21 1.72a13.65 13.65 0 0 0-4.4 3.42 29.97 29.97 0 0 0-2.4 3.2c-.54.83-.89 1.51-1.07 2.05l-.43.03c-.5-.92-1.05-1.85-1.72-2.68-.67-.82-1.61-1.76-2.77-2.78a11.8 11.8 0 0 0-4.45-2.3c-1.78-.53-3.76-.7-5.85-.54l-11 .8c-5.4.38-9.49-.55-12.32-2.8-2.73-2.26-4.81-5.66-6.13-10.13-.38-1.1-1.11-1.54-2.24-1.37l-7.07.95z"/>
    <mask id="y1bne" width="2.01" height="2.01" x="-1" y="-1"><path fill="#fff" d="M32 27h248v248H32z"/><use xlink:href="#y1bna"/></mask>
    <filter id="y1bnd" width="268" height="270" x="22" y="17" filterUnits="userSpaceOnUse"><feOffset dy="2" in="SourceGraphic" result="FeOffset1124Out"/><feGaussianBlur in="FeOffset1124Out" result="FeGaussianBlur1125Out" stdDeviation="0 0"/></filter>
    <mask id="y1bng" width="2.01" height="2.04" x="-1.01" y="-1.02"><path fill="#fff" d="M80 107h145v57H80z"/><use xlink:href="#y1bnb"/></mask>
    <filter id="y1bnf" width="165.3" height="79" x="69.7" y="97" filterUnits="userSpaceOnUse"><feOffset dx="-.3" dy="2" in="SourceGraphic" result="FeOffset1140Out"/><feGaussianBlur in="FeOffset1140Out" result="FeGaussianBlur1141Out" stdDeviation="0 0"/></filter>
    <mask id="y1bni" width="2.02" height="2.05" x="-1.01" y="-1.02"><path fill="#fff" d="M100 165h111v45H100z"/><use xlink:href="#y1bnc"/></mask>
    <filter id="y1bnh" width="131.3" height="67" x="89.7" y="155" filterUnits="userSpaceOnUse"><feOffset dx="-.3" dy="2" in="SourceGraphic" result="FeOffset1156Out"/><feGaussianBlur in="FeOffset1156Out" result="FeGaussianBlur1157Out" stdDeviation="0 0"/></filter>
  </defs>
  <g>
    <g transform="translate(-32 -28)">
      <g>
        <g filter="url(#y1bnd)"><use fill="none" stroke="#206260" stroke-width="2" mask="url(&quot;#y1bne&quot;)" xlink:href="#y1bna"/><use fill="#206260" xlink:href="#y1bna"/></g><use fill="#40a8a5" xlink:href="#y1bna"/></g>
      <g>
        <g filter="url(#y1bnf)"><use fill="none" stroke="#277674" stroke-width="2" mask="url(&quot;#y1bng&quot;)" xlink:href="#y1bnb"/><use fill="#277674" xlink:href="#y1bnb"/></g><use fill="#fff" xlink:href="#y1bnb"/></g>
      <g>
        <g filter="url(#y1bnh)"><use fill="none" stroke="#277674" stroke-width="2" mask="url(&quot;#y1bni&quot;)" xlink:href="#y1bnc"/><use fill="#277674" xlink:href="#y1bnc"/></g><use fill="#fff" xlink:href="#y1bnc"/></g>
    </g>
  </g>
</svg>
